<?xml version="1.0" encoding="UTF-8"?>
<svg id="Layer_1" data-name="Layer 1" xmlns="http://www.w3.org/2000/svg" viewBox="0 0 45 45">
  <defs>
    <style>
      .cls-1 {
        fill: #205882;
      }
    </style>
  </defs>
  <g id="Layer_2" data-name="Layer 2">
    <g>
      <path class="cls-1" d="M21.35,37.15s-4.86-3.64-4.86-3.64c-.49-.45-.77-1.1-.77-1.78v-7.48h.73c.38,0,.7-.31.7-.7v-3.54c0-.38-.31-.7-.7-.7H7.91c-.38,0-.7.31-.7.7v3.54c0,.38.31.7.7.7h.73v7.48c0,.68-.28,1.33-.72,1.74-.49.37-5.34,4-5.67,4.25-2.13,1.87-.76,5.69,2.1,5.64,0,0,15.65,0,15.65,0,2.9.05,4.25-3.8,2.05-5.68l-.7-.52ZM8.6,20.71h7.15v2.15h-7.15v-2.15ZM8.8,34.53c.78-.71,1.22-1.73,1.22-2.8v-7.48h4.3v7.48c0,1.07.45,2.09,1.27,2.85l3.25,2.43H5.5l3.3-2.48ZM21.73,40.43c-.14.89-.86,1.53-1.73,1.53H4.35c-1.58.04-2.35-2.14-1.21-3.18l.51-.38h17.06l.46.34c.45.41.68,1.07.57,1.69Z"/>
      <path class="cls-1" d="M42.22,24.27h-8.39l-.67-2.33c-.09-.3-.36-.5-.67-.5h-10.73l-.54-8.55c-.02-.37-.33-.65-.69-.65h-5.24c-.37,0-.67.29-.69.65l-.27,4.3c-.02.38.27.71.65.74.38.02.71-.27.74-.65l.23-3.65h3.94l.5,7.81h-1.14c-.91,0-.91,1.39,0,1.39.97,0,11.47,0,12.74,0,.23.81.8,2.78,1.02,3.56h-15.19c-.38,0-.7.31-.7.7s.31.7.7.7h15.42v12.05h-7.99c-.91.01-.92,1.38,0,1.39,0,0,8.69,0,8.69,0,.01,0,8.29,0,8.3,0,.38,0,.7-.31.7-.7v-15.56c0-.38-.31-.7-.7-.7ZM41.52,39.84h-6.91v-12.75c.02-.11-.35-1.29-.38-1.42h7.29v14.17Z"/>
      <path class="cls-1" d="M16.39,6.54c.72-.23.46-.83.43-1.38,0-1.18.96-2.13,2.15-2.13.92,0,1.74.58,2.03,1.44.12.39.61.59.97.4,1.36-.85,4.81-.34,4.84.99.03.9,1.37.9,1.39,0,.01-1.17.98-2.12,2.15-2.12.68,0,1.31.31,1.71.85.12.16.31.26.52.27.22.01.4-.07.54-.22.54-.58,1.35-.91,2.21-.91,3.77.09,3.78,4.88,0,4.98-1,0-1.92-.45-2.45-1.2-.23-.34-.76-.39-1.05-.1-.4.38-.92.59-1.48.59-.34-.06-.68.16-.77.51-.36,1.53-3.17,2.15-4.36,1.11-.23-.18-.56-.2-.81-.04-.53.35-1.21.54-1.9.54-1.58,0-2.86-.96-2.86-2.13-.01-.91-1.38-.91-1.39,0-.07,2.83,3.99,4.42,6.5,3,1.89,1.17,5.09.35,5.97-1.62.53-.06,1.03-.23,1.47-.51,2.45,2.52,7.41.91,7.37-2.64.07-3.26-4.36-5.03-6.92-3.02-1.57-1.46-4.39-.94-5.38.91-1.15-1.04-3.66-1.35-5.28-.76-1.8-3.04-6.58-1.75-6.58,1.81-.02.61.15,1.57.96,1.38Z"/>
      <path class="cls-1" d="M25.38,38.4h5.69c.38,0,.7-.31.7-.7,0-1.76,0-5.31,0-7.07,0-.38-.31-.7-.7-.7h-5.69c-.38,0-.7.31-.7.7v7.07c0,.38.31.7.7.7ZM30.37,37.01h-4.3v-2.15h4.3v2.15ZM26.07,31.32h4.3v2.15h-4.3v-2.15Z"/>
    </g>
  </g>
</svg>