<?xml version="1.0" encoding="UTF-8"?>
<svg id="Layer_1" data-name="Layer 1" xmlns="http://www.w3.org/2000/svg" viewBox="0 0 45 45">
  <defs>
    <style>
      .cls-1 {
        fill: #205882;
        stroke: #205882;
        stroke-miterlimit: 10;
        stroke-width: .5px;
      }
    </style>
  </defs>
  <path class="cls-1" d="M13.09,43.35h-5.06c-.14,0-.25-.11-.25-.25v-7.95c0-.69.56-1.24,1.24-1.24h3.07c.69,0,1.24.56,1.24,1.24v7.95c0,.14-.11.25-.25.25ZM8.28,42.85h4.56v-7.7c0-.41-.33-.75-.75-.75h-3.07c-.41,0-.75.33-.75.75v7.7Z"/>
  <path class="cls-1" d="M21.05,43.35h-5.06c-.14,0-.25-.11-.25-.25v-13.32c0-.69.56-1.24,1.24-1.24h3.07c.69,0,1.24.56,1.24,1.24v13.32c0,.14-.11.25-.25.25ZM16.24,42.85h4.56v-13.08c0-.41-.33-.75-.75-.75h-3.07c-.41,0-.75.33-.75.75v13.08Z"/>
  <path class="cls-1" d="M29.01,43.35h-5.06c-.14,0-.25-.11-.25-.25v-18.7c0-.69.56-1.24,1.24-1.24h3.07c.69,0,1.24.56,1.24,1.24v18.7c0,.14-.11.25-.25.25ZM24.2,42.85h4.56v-18.45c0-.41-.33-.75-.75-.75h-3.07c-.41,0-.75.33-.75.75v18.45Z"/>
  <path class="cls-1" d="M38.2,43.35H6.8c-.14,0-.25-.11-.25-.25s.11-.25.25-.25h31.39c.14,0,.25.11.25.25s-.11.25-.25.25Z"/>
  <path class="cls-1" d="M16.62,5.85h-5.88c-.58,0-1.06-.47-1.06-1.06v-2.09c0-.58.47-1.06,1.06-1.06h5.88c.58,0,1.06.47,1.06,1.06v2.09c0,.58-.47,1.06-1.06,1.06ZM10.73,2.15c-.31,0-.56.25-.56.56v2.09c0,.31.25.56.56.56h5.88c.31,0,.56-.25.56-.56v-2.09c0-.31-.25-.56-.56-.56h-5.88Z"/>
  <path class="cls-1" d="M16.01,8.83h-4.67c-.14,0-.25-.11-.25-.25v-2.98c0-.14.11-.25.25-.25h4.67c.14,0,.25.11.25.25v2.98c0,.14-.11.25-.25.25ZM11.59,8.34h4.17v-2.48h-4.17v2.48Z"/>
  <path class="cls-1" d="M16.84,23.22h-6.34c-1.5,0-2.72-1.22-2.72-2.72v-9.44c0-1.5,1.22-2.72,2.72-2.72h6.34c1.5,0,2.72,1.22,2.72,2.72v9.44c0,1.5-1.22,2.72-2.72,2.72ZM10.51,8.83c-1.23,0-2.22,1-2.22,2.22v9.44c0,1.23,1,2.22,2.22,2.22h6.34c1.23,0,2.22-1,2.22-2.22v-9.44c0-1.23-1-2.22-2.22-2.22h-6.34Z"/>
  <path class="cls-1" d="M28.92,8.93h-4.89c-.39,0-.74-.21-.92-.55-.18-.34-.16-.75.06-1.07l2.23-3.25c.24-.35.64-.56,1.07-.56.43,0,.83.21,1.07.56l2.23,3.25h0c.22.32.24.73.06,1.07-.18.34-.53.55-.92.55ZM26.48,4c-.27,0-.51.13-.66.35l-2.23,3.25c-.11.17-.13.37-.03.55.09.18.27.29.48.29h4.89c.2,0,.38-.11.48-.29.09-.18.08-.39-.03-.55l-2.23-3.25c-.15-.22-.39-.35-.66-.35Z"/>
  <path class="cls-1" d="M26.48,16.02c-.14,0-.25-.11-.25-.25v-6.78c0-.14.11-.25.25-.25s.25.11.25.25v6.78c0,.14-.11.25-.25.25Z"/>
  <path class="cls-1" d="M19.32,19.68h-11.28c-.14,0-.25-.11-.25-.25v-7.31c0-.14.11-.25.25-.25h4.19c.14,0,.25.11.25.25s-.11.25-.25.25h-3.94v6.81h10.78v-6.81h-3.94c-.14,0-.25-.11-.25-.25s.11-.25.25-.25h4.19c.14,0,.25.11.25.25v7.31c0,.14-.11.25-.25.25Z"/>
  <path class="cls-1" d="M36.97,43.35h-5.06c-.14,0-.25-.11-.25-.25v-24.08c0-.69.56-1.24,1.24-1.24h3.07c.69,0,1.24.56,1.24,1.24v10.09c0,.14-.11.25-.25.25s-.25-.11-.25-.25v-10.09c0-.41-.33-.75-.75-.75h-3.07c-.41,0-.75.33-.75.75v23.83h4.56v-10.84c0-.14.11-.25.25-.25s.25.11.25.25v11.09c0,.14-.11.25-.25.25Z"/>
</svg>