<?xml version="1.0" encoding="UTF-8"?>
<svg id="Layer_1" data-name="Layer 1" xmlns="http://www.w3.org/2000/svg" viewBox="0 0 45 45">
  <defs>
    <style>
      .cls-1 {
        fill: #205882;
      }
    </style>
  </defs>
  <path class="cls-1" d="M39.27,34.85l-3.4-12.7c-.07-.28-.36-.44-.64-.37l-2.1.56-.44-.62c.36-.67.66-1.38.88-2.11l3.11-.51c.25-.04.43-.26.43-.51v-4.64c0-.25-.18-.47-.43-.51l-3.11-.51c-.22-.73-.51-1.44-.88-2.11l1.84-2.56c.15-.21.12-.49-.05-.67l-3.28-3.28c-.18-.18-.46-.2-.67-.05l-2.56,1.84c-.67-.36-1.38-.66-2.11-.88l-.51-3.11c-.04-.25-.26-.43-.51-.43h-4.64c-.25,0-.47.18-.51.43l-.51,3.11c-.73.22-1.44.51-2.11.88l-2.56-1.84c-.21-.15-.49-.12-.67.05l-3.28,3.28c-.18.18-.2.46-.05.67l1.84,2.56c-.36.67-.66,1.38-.88,2.11l-3.11.51c-.25.04-.43.26-.43.51v4.64c0,.25.18.47.43.51l3.11.51c.22.73.51,1.44.88,2.11l-.38.53-2.16-.58c-.28-.07-.56.09-.64.37l-3.4,12.7c-.04.13-.02.27.05.39s.18.21.31.24l4.02,1.08s.09.02.13.02c.23,0,.44-.15.5-.38l.05-.19,9.12,6.99c.4.31.87.46,1.34.46.67,0,1.32-.3,1.76-.87.26-.33.41-.73.45-1.14l.35.27c.39.3.86.46,1.34.46.1,0,.2,0,.3-.02.59-.08,1.11-.38,1.47-.85.28-.36.43-.78.45-1.21.29.13.6.2.91.2.67,0,1.32-.3,1.76-.87.36-.47.5-1.03.44-1.58.06,0,.13,0,.19,0,.1,0,.2,0,.3-.02.59-.08,1.11-.38,1.47-.85.3-.39.46-.87.46-1.35.18.05.37.07.55.07.21,0,.41-.03.62-.09l.18.68c.06.23.27.38.5.38.04,0,.09,0,.13-.02l4.02-1.08c.13-.04.25-.12.31-.24s.09-.26.05-.4h0ZM13.37,21.5c-.45-.78-.8-1.62-1.03-2.48-.05-.2-.22-.34-.42-.38l-3-.49v-3.76l3-.49c.2-.03.36-.18.42-.38.23-.87.58-1.7,1.03-2.48.1-.18.09-.4-.03-.56l-1.77-2.47,2.66-2.66,2.47,1.77c.17.12.38.13.56.03.78-.45,1.62-.8,2.48-1.03.2-.05.34-.22.38-.42l.49-3h3.76l.49,3c.03.2.18.36.38.42.87.23,1.7.58,2.48,1.03.18.1.4.09.56-.03l2.47-1.77,2.66,2.66-1.77,2.47c-.12.17-.13.38-.03.56.45.78.8,1.62,1.03,2.48.05.2.22.34.42.38l3,.49v3.76l-3,.49c-.2.03-.36.18-.42.38-.23.87-.58,1.7-1.03,2.48-.1.18-.09.4.03.56l.41.57-.85.23c-.13.04-.25.12-.31.24s-.09.26-.05.39l.03.1-2.94-.67c.22-.18.44-.38.64-.58,3.35-3.35,3.35-8.79,0-12.14s-8.79-3.35-12.14,0-3.35,8.79,0,12.14c.4.4.83.75,1.29,1.06l-3.66.34.09-.35c.04-.13.02-.27-.05-.39s-.18-.21-.31-.24l-.78-.21.34-.48c.12-.17.13-.39.03-.56h0ZM27.97,21.46c-.54-1.63-1.89-2.88-3.54-3.3.9-.62,1.49-1.65,1.49-2.82,0-1.89-1.54-3.42-3.42-3.42s-3.42,1.54-3.42,3.42c0,1.17.59,2.21,1.49,2.82-1.65.42-3,1.67-3.54,3.3-2.8-2.95-2.76-7.63.14-10.53,2.94-2.94,7.73-2.94,10.67,0,2.9,2.89,2.94,7.58.14,10.53h0ZM22.5,17.71c-1.31,0-2.38-1.07-2.38-2.38s1.07-2.38,2.38-2.38,2.38,1.07,2.38,2.38-1.07,2.38-2.38,2.38ZM18.63,22.74c-.26-.15-.5-.32-.74-.51.38-1.85,2.01-3.2,3.92-3.2h1.37c1.91,0,3.55,1.36,3.92,3.21-.17.13-.34.25-.52.37l-3.46-.79c-1.63-.37-3.25-.01-4.5.93h0ZM9.88,35.32l-3.01-.81,3.14-11.7,3.01.81-3.14,11.7ZM31.62,36.25c-.19.25-.47.41-.78.45-.31.04-.62-.04-.87-.23l-.33-.26h0s-4.79-3.67-4.79-3.67c-.23-.17-.55-.13-.73.1-.17.23-.13.55.1.73l4.79,3.67c.51.39.61,1.13.22,1.65s-1.13.61-1.65.22l-1.06-.81s0,0,0,0h0s-4.54-3.48-4.54-3.48c-.23-.17-.55-.13-.73.1-.17.23-.13.55.1.73l4.54,3.48c.51.39.61,1.13.22,1.65-.19.25-.47.41-.78.45-.31.04-.62-.04-.87-.23l-5.35-4.1c-.23-.17-.55-.13-.73.1-.17.23-.13.55.1.73l3.51,2.69c.25.19.41.47.45.78.04.31-.04.62-.23.87-.39.51-1.13.61-1.65.22l-9.46-7.25,2.68-10.01,3.34-.31-2.29,3.87c-.07.12-.09.26-.06.39.03.13.12.25.24.32l.73.43c2.05,1.22,4.72.54,5.94-1.52l.35-.58,9.39,7.2h0c.25.19.41.47.45.78.04.32-.04.62-.23.87h0ZM32.74,34.32l-10.55-8.09s0,0-.01,0l-1.24-.95c-.23-.17-.55-.13-.73.1-.17.23-.13.55.1.73l.88.68-.41.69c-.93,1.56-2.95,2.08-4.51,1.15l-.28-.17,2.11-3.56c1-1.69,2.89-2.5,4.81-2.06l8.28,1.9,2.62,9.79c-.36.11-.75.05-1.06-.19h0ZM35.12,35.42l-3.02-11.27-.11-.42,3.01-.81,3.14,11.7-3.01.81Z"/>
</svg>